#tb 0: 1/25
0,          0,          0,        1,   304128, 0x0b37f0be
0,          1,          1,        1,   304128, 0xc435975f
0,          2,          2,        1,   304128, 0x6a3b4c07
0,          3,          3,        1,   304128, 0x31ff2869
0,          4,          4,        1,   304128, 0xb57ee386
